<svg width="24" height="24" viewBox="0 0 24 24" fill="none" xmlns="http://www.w3.org/2000/svg">
<path fill-rule="evenodd" clip-rule="evenodd" d="M17.3656 6.63422C17.678 6.94664 17.678 7.45317 17.3656 7.76559L13.1313 11.9999L17.3656 16.2342C17.678 16.5466 17.678 17.0532 17.3656 17.3656C17.0532 17.678 16.5466 17.678 16.2342 17.3656L11.9999 13.1313L7.76559 17.3656C7.45317 17.678 6.94664 17.678 6.63422 17.3656C6.3218 17.0532 6.3218 16.5466 6.63422 16.2342L10.8685 11.9999L6.63422 7.76559C6.3218 7.45317 6.3218 6.94664 6.63422 6.63422C6.94664 6.3218 7.45317 6.3218 7.76559 6.63422L11.9999 10.8685L16.2342 6.63422C16.5466 6.3218 17.0532 6.3218 17.3656 6.63422Z" fill="#0880ae"/>
<mask id="mask0" style="mask-type:alpha" maskUnits="userSpaceOnUse" x="6" y="6" width="12" height="12">
<path fill-rule="evenodd" clip-rule="evenodd" d="M17.3656 6.63422C17.678 6.94664 17.678 7.45317 17.3656 7.76559L13.1313 11.9999L17.3656 16.2342C17.678 16.5466 17.678 17.0532 17.3656 17.3656C17.0532 17.678 16.5466 17.678 16.2342 17.3656L11.9999 13.1313L7.76559 17.3656C7.45317 17.678 6.94664 17.678 6.63422 17.3656C6.3218 17.0532 6.3218 16.5466 6.63422 16.2342L10.8685 11.9999L6.63422 7.76559C6.3218 7.45317 6.3218 6.94664 6.63422 6.63422C6.94664 6.3218 7.45317 6.3218 7.76559 6.63422L11.9999 10.8685L16.2342 6.63422C16.5466 6.3218 17.0532 6.3218 17.3656 6.63422Z" fill="white"/>
</mask>
<g mask="url(#mask0)">
<rect width="24" height="24" fill="#0880AE"/>
</g>
</svg>
